<?xml version="1.0" encoding="UTF-8"?>
<!DOCTYPE svg PUBLIC "-//W3C//DTD SVG 1.1//EN" "http://www.w3.org/Graphics/SVG/1.1/DTD/svg11.dtd">
<!-- Creator: CorelDRAW X8 -->
<svg xmlns="http://www.w3.org/2000/svg" xml:space="preserve" width="9.99999in" height="5in" version="1.1" style="shape-rendering:geometricPrecision; text-rendering:geometricPrecision; image-rendering:optimizeQuality; fill-rule:evenodd; clip-rule:evenodd"
viewBox="0 0 10000 5000"
 xmlns:xlink="http://www.w3.org/1999/xlink">
 <defs>
  <style type="text/css">
   <![CDATA[
    .str5 {stroke:black;stroke-width:26.6654}
    .str7 {stroke:black;stroke-width:16.6654}
    .str6 {stroke:black;stroke-width:16.6654}
    .str8 {stroke:black;stroke-width:6.66535}
    .str9 {stroke:black;stroke-width:6.66535}
    .str3 {stroke:black;stroke-width:6.94488}
    .str2 {stroke:#E6E6E6;stroke-width:6.94488}
    .str4 {stroke:#6666CC;stroke-width:3}
    .str0 {stroke:#B3B3B3;stroke-width:3}
    .str1 {stroke:#E6E6E6;stroke-width:3}
    .fil12 {fill:none}
    .fil24 {fill:black}
    .fil0 {fill:#000066}
    .fil9 {fill:#6666CC}
    .fil14 {fill:#6666CC}
    .fil20 {fill:#6666FF}
    .fil10 {fill:#6699FF}
    .fil19 {fill:gray}
    .fil8 {fill:#9999FF}
    .fil17 {fill:#B3B3B3}
    .fil18 {fill:#B8B8B8}
    .fil23 {fill:#CCCCFF}
    .fil16 {fill:#E6E6E6}
    .fil28 {fill:#F2F2F2}
    .fil29 {fill:#FF4D11}
    .fil21 {fill:#FF6600}
    .fil5 {fill:#FF751A}
    .fil11 {fill:#FF751A}
    .fil30 {fill:#FF8331}
    .fil6 {fill:#FF9A59}
    .fil26 {fill:#FFAD79}
    .fil27 {fill:#FFAD79}
    .fil25 {fill:#FFBC92}
    .fil22 {fill:#FFD300}
    .fil13 {fill:#FFF000}
    .fil7 {fill:white}
    .fil15 {fill:white}
    .fil31 {fill:url(#id0)}
    .fil1 {fill:url(#id1)}
    .fil3 {fill:url(#id2)}
    .fil2 {fill:url(#id3)}
    .fil4 {fill:url(#id4)}
   ]]>
  </style>
  <linearGradient id="id0" gradientUnits="userSpaceOnUse" x1="14.063" y1="3193.36" x2="2911.28" y2="3193.36">
   <stop offset="0" style="stop-opacity:1; stop-color:#6666CC"/>
   <stop offset="0.580392" style="stop-opacity:1; stop-color:#A0A0E5"/>
   <stop offset="1" style="stop-opacity:1; stop-color:#DBDBFF"/>
  </linearGradient>
  <linearGradient id="id1" gradientUnits="userSpaceOnUse" x1="9746.9" y1="3762.66" x2="9408.74" y2="3156.14">
   <stop offset="0" style="stop-opacity:1; stop-color:#FF751A"/>
   <stop offset="0.788235" style="stop-opacity:1; stop-color:#FFBA8C"/>
   <stop offset="0.94902" style="stop-opacity:1; stop-color:white"/>
   <stop offset="0.960784" style="stop-opacity:1; stop-color:white"/>
   <stop offset="0.980392" style="stop-opacity:1; stop-color:white"/>
   <stop offset="0.988235" style="stop-opacity:1; stop-color:white"/>
   <stop offset="0.988235" style="stop-opacity:1; stop-color:white"/>
   <stop offset="1" style="stop-opacity:1; stop-color:white"/>
  </linearGradient>
  <linearGradient id="id2" gradientUnits="userSpaceOnUse" xlink:href="#id1" x1="2452.76" y1="485.303" x2="3592.05" y2="375.043">
  </linearGradient>
  <linearGradient id="id3" gradientUnits="userSpaceOnUse" x1="9866.03" y1="41.9528" x2="9235.24" y2="856.441">
   <stop offset="0" style="stop-opacity:1; stop-color:#6699FF"/>
   <stop offset="0.788235" style="stop-opacity:1; stop-color:#B2CCFF"/>
   <stop offset="0.94902" style="stop-opacity:1; stop-color:white"/>
   <stop offset="0.960784" style="stop-opacity:1; stop-color:white"/>
   <stop offset="0.980392" style="stop-opacity:1; stop-color:white"/>
   <stop offset="0.988235" style="stop-opacity:1; stop-color:white"/>
   <stop offset="0.988235" style="stop-opacity:1; stop-color:white"/>
   <stop offset="1" style="stop-opacity:1; stop-color:white"/>
  </linearGradient>
  <linearGradient id="id4" gradientUnits="userSpaceOnUse" xlink:href="#id3" x1="4596.2" y1="3461.54" x2="5907.75" y2="3284.65">
  </linearGradient>
 </defs>
 <g id="Layer_x0020_1">
  <metadata id="CorelCorpID_0Corel-Layer"/>
  <g id="_84796414288">
   <rect class="fil0" x="14" y="293" width="9999" height="3533"/>
   <path class="fil1" d="M9944 3826l-766 0c-24,-49 -46,-96 -63,-137 -71,-170 -68,-252 24,-243 93,9 276,109 400,119 124,11 189,-67 245,-123 56,-56 103,-91 141,-68 38,23 68,105 46,289 -6,48 -16,104 -27,163z"/>
   <path class="fil2" d="M8958 293l1055 0 0 207c-47,41 -93,84 -121,125 -70,103 -34,199 -12,275 21,76 29,134 -10,156 -39,22 -125,8 -274,-102 -150,-109 -364,-313 -486,-444 -109,-116 -146,-175 -152,-217z"/>
   <path class="fil3" d="M2496 293l960 0c1,17 -3,33 -12,47 -21,34 -72,52 -121,42 -49,-10 -95,-49 -148,-54 -53,-5 -112,25 -132,63 -19,38 1,84 69,116 68,31 183,47 249,82 65,35 82,89 17,144 -66,56 -212,113 -348,166 -137,52 -262,99 -310,52 -48,-46 -20,-187 -57,-295 -37,-109 -139,-185 -178,-247 -29,-47 -21,-86 11,-116z"/>
   <path class="fil4" d="M5756 3823l-1096 0c-16,-11 -30,-23 -39,-37 -25,-40 -14,-99 10,-132 25,-33 62,-42 111,-47 48,-6 108,-8 154,-58 47,-50 81,-147 115,-208 34,-62 68,-89 101,-80 33,8 66,52 114,120 48,69 111,162 197,217 86,56 195,73 277,153 21,21 40,46 56,72z"/>
   <polygon class="fil5 str0" points="5994,2213 8803,2209 8356,3289 6370,3289 "/>
   <polygon class="fil6" points="5685,2059 9112,2059 9029,2211 5764,2211 "/>
   <rect class="fil7" x="5568" y="2057" width="3732.31" height="35.7159" rx="21" ry="15"/>
   <g>
    <path class="fil8" d="M6052 1900l155 0 0 79c0,42 -34,77 -77,77l-1 0c-43,0 -77,-35 -77,-77l0 -79z"/>
    <path class="fil9" d="M5982 2023l295 0 0 0c0,20 -16,36 -36,36l-223 0c-20,0 -36,-16 -36,-36l0 0z"/>
    <path class="fil10" d="M6044 1901c-3,-2 -5,3 -7,5 -3,2 -5,1 -8,-2 -3,-2 -7,-7 -11,-10 -5,-4 -10,-5 -16,-4 -5,0 -10,4 -13,10 -2,6 -3,15 2,24 4,10 13,19 21,27 8,9 15,16 20,23 6,6 9,12 9,17 0,6 -2,11 -5,14 -4,4 -8,6 -7,5 1,0 8,-3 13,-7 5,-4 8,-10 7,-16 0,-6 -4,-13 -10,-22 -7,-8 -16,-18 -23,-27 -7,-9 -12,-17 -12,-24 -1,-6 4,-10 10,-7 5,3 13,13 19,15 7,3 13,-1 15,-7 2,-6 -2,-13 -4,-14z"/>
    <polygon class="fil11 str1" points="6117,1934 6152,1934 6152,1965 6143,1980 6126,1980 6117,1965 "/>
    <line class="fil12 str2" x1="6134" y1="1933" x2="6134" y2= "1900" />
   </g>
   <g>
    <circle class="fil13" cx="5934" cy="1362" r="29"/>
    <rect class="fil14" transform="matrix(0.429224 0.494805 -0.492616 0.427324 5854.42 1285.2)" width="23.3346" height="513.335"/>
    <path class="fil5" d="M5742 1938c45,0 82,34 88,78l-176 0c5,-44 42,-78 88,-78z"/>
    <rect class="fil14" x="5652" y="2021" width="178.491" height="33.8073"/>
    <path class="fil11" d="M5876 1297c30,-24 73,-20 99,6l-117 92c-19,-32 -12,-74 18,-98z"/>
    <rect class="fil14" transform="matrix(0.0623277 -0.0488763 0.0300868 0.0383671 5856.65 1394.77)" width="1907" height="587"/>
    <rect class="fil14" transform="matrix(0.622967 -0.202429 0.266838 0.82118 5599.5 1515.79)" width="23.3346" height="513.335"/>
    <circle class="fil7" cx="5742" cy="1932" r="22"/>
    <circle class="fil7 str3" cx="5742" cy="1932" r="15"/>
    <circle class="fil7" cx="5607" cy="1510" r="22"/>
    <circle class="fil7 str3" cx="5607" cy="1510" r="15"/>
    <circle class="fil7" cx="5863" cy="1291" r="22"/>
    <circle class="fil7 str3" cx="5863" cy="1291" r="15"/>
   </g>
   <path class="fil15" d="M6842 2010l748 0 0 9c0,20 -16,36 -36,36l-676 0c-20,0 -36,-16 -36,-36l0 -9z"/>
   <path class="fil7" d="M7347 2005l-378 -386 -106 0c-9,0 -16,8 -16,17l0 352c0,10 7,17 16,17l484 0z"/>
   <path class="fil16" d="M6957 1619l378 386 221 0c10,0 17,-7 17,-17l0 -352c0,-9 -7,-17 -17,-17l-599 0z"/>
   <rect class="fil15" x="7806" y="1172" width="968" height="624" rx="24" ry="24"/>
   <rect class="fil16" x="7870" y="1249" width="838" height="502" rx="21" ry="19"/>
   <path class="fil15" d="M8202 1488l145 0c11,0 21,10 21,22l0 491 -187 0 0 -491c0,-12 9,-22 21,-22zm-122 515l389 0c29,0 52,23 52,52l0 0 -493 0 0 0c0,-29 23,-52 52,-52z"/>
   <line class="fil12" x1="8331" y1="1164" x2="8779" y2= "1592" />
   <path class="fil17" d="M8709 1525l0 -255c0,-12 -10,-21 -21,-21l-268 0 289 276z"/>
   <path class="fil18" d="M8688 1249c11,0 21,9 21,21l0 255 65 62 0 -391c0,-13 -11,-24 -24,-24l-411 0 81 77 268 0z"/>
   <path class="fil14 str4" d="M9514 3261l75 -232 -214 0 -213 0c25,79 51,157 76,236 9,29 29,23 63,23 67,0 82,0 149,0 35,0 54,5 64,-27z"/>
   <rect class="fil19" x="9358" y="1152" width="27.7126" height="1810.49"/>
   <path class="fil20" d="M9442 1026c-1,72 -33,130 -72,130 -39,0 -71,-58 -72,-130l144 0z"/>
   <path class="fil21" d="M9366 1006c-14,1 -27,8 -40,8 -13,0 -27,-7 -39,-8 -8,0 -15,2 -21,3 9,12 16,34 21,48 6,15 9,20 14,22 4,2 11,2 15,-1 5,-3 7,-9 9,-14 2,-4 5,-7 8,-6 3,1 6,5 9,11 3,5 5,11 10,16 4,4 10,7 15,7 5,0 10,-3 16,-9 5,-6 12,-15 17,-21 4,-5 7,-7 10,-6 2,1 4,4 6,8 3,5 6,11 9,14 3,3 7,3 11,2 4,-2 7,-5 13,-13 6,-8 13,-22 20,-34 4,-10 8,-19 13,-24 -7,-1 -14,-2 -21,-2 -15,1 -32,6 -48,5 -17,0 -32,-6 -47,-6z"/>
   <path class="fil22" d="M9212 952c6,-10 14,-21 25,-29 12,-8 26,-13 38,-12 12,1 23,8 28,12 6,3 7,3 4,7 -2,3 -9,10 -5,7 4,-4 18,-18 31,-26 13,-8 25,-10 33,-8 8,3 13,9 18,13 6,4 11,7 18,9 6,3 13,7 14,10 2,4 -3,9 1,4 5,-4 18,-17 31,-23 12,-6 24,-5 34,0 10,5 18,13 24,20 6,7 10,12 15,16 6,4 15,6 18,12 3,6 1,16 -7,27 -7,12 -20,25 -33,26 -12,1 -24,-10 -39,-9 -15,0 -33,13 -49,12 -16,-1 -30,-15 -44,-16 -15,-1 -30,12 -43,14 -14,1 -26,-9 -38,-9 -13,-1 -26,7 -37,8 -11,0 -21,-7 -29,-14 -8,-8 -15,-15 -17,-23 -2,-9 3,-18 9,-28z"/>
   <path class="fil23" d="M9437 1720c3,-19 15,-42 38,-58 22,-16 55,-24 87,-18 32,5 63,24 85,62 23,39 38,98 52,157 -19,-24 -38,-48 -60,-62 -23,-14 -50,-17 -75,-18 -25,0 -48,2 -68,1 -20,-1 -37,-6 -48,-16 -10,-11 -15,-28 -11,-48z"/>
   <path class="fil21" d="M9599 1214c-4,-11 -8,-18 -16,-21 -7,-4 -17,-2 -24,-6 -8,-4 -12,-12 -13,-19 -1,-7 2,-12 11,-17 9,-5 25,-11 40,-9 16,1 32,10 42,22 10,13 15,30 17,45 2,15 1,29 -2,39 -4,9 -10,15 -17,15 -7,0 -16,-4 -23,-14 -6,-9 -10,-24 -15,-35z"/>
   <path class="fil23" d="M9546 1385c-8,-10 -15,-22 -16,-33 -2,-11 1,-22 6,-29 5,-8 12,-12 20,-13 7,0 15,4 25,1 9,-2 19,-10 33,-8 15,3 33,17 39,41 5,23 -3,56 -13,79 -11,23 -25,37 -29,52 -4,14 2,29 1,33 0,4 -8,-2 -13,-9 -6,-6 -10,-12 -14,-18 -4,-5 -8,-10 -11,-18 -3,-9 -5,-20 -5,-29 0,-9 2,-15 -2,-22 -4,-8 -13,-17 -21,-27z"/>
   <path class="fil12 str5" d="M9383 1297c35,-24 70,-48 105,-63 35,-15 70,-20 105,-26"/>
   <path class="fil12 str5" d="M9576 1320c-7,-21 -14,-41 -31,-54 -17,-13 -42,-18 -68,-24"/>
   <path class="fil12 str5" d="M9279 1404c17,13 34,26 48,42 15,17 28,37 41,58"/>
   <path class="fil23" d="M9298 1393c-3,-17 -13,-36 -32,-49 -19,-13 -47,-20 -74,-16 -27,5 -53,20 -73,53 -19,33 -31,83 -43,133 16,-20 32,-41 51,-52 19,-12 42,-15 63,-15 21,-1 41,1 58,0 17,-1 31,-5 40,-14 9,-9 13,-23 10,-40z"/>
   <path class="fil12 str5" d="M9443 1735c-11,4 -22,8 -33,20 -11,12 -22,32 -33,52"/>
   <path class="fil21" d="M9094 3029l563 0 0 -23c0,-27 -22,-49 -49,-49l-465 0c-27,0 -49,22 -49,49l0 23z"/>
   <rect class="fil15" x="6946" y="1130" width="498" height="339" rx="46" ry="57"/>
   <path class="fil12 str3" d="M7194 1260c15,31 30,63 56,84 26,21 62,33 77,63 15,31 10,80 4,113 -6,34 -13,52 -24,67 -11,15 -26,27 -33,31 -6,4 -5,1 -4,-2"/>
   <path class="fil12 str3" d="M6847 1712c-16,7 -30,15 -43,25 -17,12 -30,28 -59,68 -29,40 -74,105 -119,169"/>
   <path class="fil12" d="M7573 1771c48,81 92,159 113,206 24,55 17,70 16,77 -1,7 4,4 9,1"/>
   <path class="fil24 str6" d="M6998 1334c0,43 14,91 29,139 -1,-6 -2,-13 -2,-20 -4,-38 -7,-77 21,-96 28,-20 86,-22 121,-43 19,-12 32,-29 41,-49 15,30 30,59 54,79 26,21 62,33 77,63 15,31 10,80 4,113 -1,6 -2,10 -3,15 21,-82 41,-164 42,-218 2,-54 -16,-81 -36,-100 -19,-19 -40,-30 -75,-38 -36,-7 -86,-11 -129,-5 -44,5 -79,19 -104,46 -26,27 -40,68 -40,114z"/>
   <path class="fil25" d="M7046 1357c-28,19 -25,58 -21,96 0,7 1,14 2,20 3,32 7,63 17,87 10,26 26,43 43,59l194 0 3 0c1,0 2,0 2,-1 7,-4 22,-16 33,-31 9,-12 15,-27 21,-52 1,-5 2,-9 3,-15 6,-33 11,-82 -4,-113 -15,-30 -51,-42 -77,-63 -24,-20 -39,-49 -54,-79 -9,20 -22,37 -41,49 -35,21 -93,23 -121,43z"/>
   <path class="fil12 str7" d="M7218 1395c6,0 12,0 20,0 7,-1 15,-2 23,0 8,1 16,5 23,8"/>
   <path class="fil12 str7" d="M7153 1395c-6,0 -12,0 -19,0 -8,-1 -16,-2 -24,0 -8,1 -16,5 -23,8"/>
   <circle class="fil24 str8" cx="7124" cy="1417" r="11"/>
   <circle class="fil24 str8" cx="7249" cy="1418" r="11"/>
   <circle class="fil7 str8" cx="7252" cy="1422" r="5"/>
   <circle class="fil7 str8" cx="7126" cy="1419" r="5"/>
   <path class="fil12 str9" d="M7146 1567c29,0 59,0 89,0"/>
   <path class="fil12 str9" d="M7160 1516c19,0 37,0 56,0"/>
   <path class="fil12 str9" d="M7153 1574c4,2 8,4 12,7 4,3 6,6 10,7 3,1 8,0 12,-1 3,0 7,1 10,2 3,0 5,-1 8,-3 4,-2 7,-6 10,-8 4,-2 6,-3 9,-4"/>
   <path class="fil26" d="M7332 1420c-6,39 -12,76 -20,102 -9,31 -21,44 -32,55 -12,11 -23,20 -29,27 -6,6 -8,11 -9,15l27 0 4 0 8 0 4 0 1 -1c7,-4 22,-16 33,-31 9,-12 16,-27 21,-52 1,-5 2,-9 3,-15 6,-33 11,-82 -4,-113 -1,-2 -2,-4 -4,-7 -1,7 -2,13 -3,20z"/>
   <path class="fil27" d="M6578 2015c14,-5 32,-6 50,-5 14,1 21,2 38,8 18,6 35,26 46,42l2 -3c5,-6 9,-12 4,-27 -5,-14 -19,-37 -34,-51 -14,-13 -28,-18 -48,-15 -1,0 -2,0 -3,0 -22,3 -52,14 -68,28 -15,13 -18,28 -21,43 9,-9 20,-16 34,-20z"/>
   <path class="fil7" d="M6627 2010c-12,5 -23,9 -31,12 -9,4 -13,6 -17,12 -3,6 -6,15 -9,23l143 0c-12,-15 -23,-30 -47,-39 -11,-4 -25,-7 -39,-8z"/>
   <path class="fil16" d="M6579 2034c4,-6 8,-8 17,-12 7,-3 19,-7 31,-12 -17,-1 -35,0 -50,5 -14,4 -25,11 -34,20 -7,7 -13,15 -19,22l46 0c3,-8 6,-17 9,-23z"/>
   <path class="fil8" d="M6636 1964c20,-3 34,2 48,15 15,14 29,37 34,51 5,15 1,21 -4,27l988 0c0,0 -1,-1 0,-3 1,-7 8,-22 -16,-77 -21,-47 -65,-125 -113,-206l0 217c0,10 -7,17 -17,17l-209 0 -12 0 -472 0c-9,0 -16,-7 -16,-17l0 -276c-16,7 -30,15 -43,25 -17,12 -30,28 -59,68 -27,38 -69,98 -112,159l3 0zm206 46l748 0 98 0 0 9c0,20 -16,36 -36,36l-98 0 -676 0 -99 0c-19,0 -35,-16 -35,-36l0 -9 98 0z"/>
   <path class="fil12" d="M7800 1213c25,25 50,50 75,75"/>
   <path class="fil12" d="M7841 1171c27,27 55,55 82,82"/>
   <path class="fil28" d="M7919 1249l-77 -77 -12 0c-14,0 -24,11 -24,24l0 23 64 64 0 -15c0,-10 9,-19 20,-19l29 0z"/>
   <path class="fil16" d="M7688 2010l-98 0 0 9c0,20 -16,36 -36,36l98 0c20,0 36,-16 36,-36l0 -9z"/>
   <path class="fil16" d="M6878 2055c-20,0 -36,-16 -36,-36l0 -9 -98 0 0 9c0,20 16,36 35,36l99 0z"/>
   <ellipse class="fil29" cx="4894" cy="2019" rx="189" ry="177"/>
   <ellipse class="fil14" transform="matrix(-0.0579138 -0.00969822 0.00969822 -0.0579138 4345.87 2246.18)" rx="3217" ry="3017"/>
   <ellipse class="fil30" cx="4982" cy="2109" rx="149" ry="140"/>
   <ellipse class="fil8" transform="matrix(-0.0458036 -0.00767026 0.00767026 -0.0458036 4273.98 2142.38)" rx="3217" ry="3017"/>
   <path class="fil31" d="M291 3197c86,-142 219,-459 331,-578 112,-118 205,-38 271,72 66,111 106,251 144,351 39,100 75,161 185,171 110,10 295,-30 437,26 142,56 243,209 421,287 179,78 435,82 604,128 164,45 245,131 224,172l-2894 0 0 -606c12,-18 24,-23 36,-21 27,4 51,40 83,74 32,35 72,67 158,-76z"/>
  </g>
 </g>
</svg>
